<?xml version="1.0" standalone="no"?>
<svg xmlns:xlink="http://www.w3.org/1999/xlink" id="wave" style="transform:rotate(0deg); transition: 0.3s" viewBox="0 0 1440 490" version="1.1" xmlns="http://www.w3.org/2000/svg"><defs><linearGradient id="sw-gradient-0" x1="0" x2="0" y1="1" y2="0"><stop stop-color="rgba(167, 115, 112, 1)" offset="0%"/><stop stop-color="rgba(238, 173, 170, 1)" offset="100%"/></linearGradient></defs><path style="transform:translate(0, 0px); opacity:1" fill="url(#sw-gradient-0)" d="M0,0L30,65.3C60,131,120,261,180,285.8C240,310,300,229,360,179.7C420,131,480,114,540,106.2C600,98,660,98,720,114.3C780,131,840,163,900,171.5C960,180,1020,163,1080,155.2C1140,147,1200,147,1260,187.8C1320,229,1380,310,1440,359.3C1500,408,1560,425,1620,359.3C1680,294,1740,147,1800,106.2C1860,65,1920,131,1980,163.3C2040,196,2100,196,2160,187.8C2220,180,2280,163,2340,187.8C2400,212,2460,278,2520,318.5C2580,359,2640,376,2700,343C2760,310,2820,229,2880,163.3C2940,98,3000,49,3060,57.2C3120,65,3180,131,3240,187.8C3300,245,3360,294,3420,285.8C3480,278,3540,212,3600,196C3660,180,3720,212,3780,261.3C3840,310,3900,376,3960,383.8C4020,392,4080,343,4140,343C4200,343,4260,392,4290,416.5L4320,441L4320,490L4290,490C4260,490,4200,490,4140,490C4080,490,4020,490,3960,490C3900,490,3840,490,3780,490C3720,490,3660,490,3600,490C3540,490,3480,490,3420,490C3360,490,3300,490,3240,490C3180,490,3120,490,3060,490C3000,490,2940,490,2880,490C2820,490,2760,490,2700,490C2640,490,2580,490,2520,490C2460,490,2400,490,2340,490C2280,490,2220,490,2160,490C2100,490,2040,490,1980,490C1920,490,1860,490,1800,490C1740,490,1680,490,1620,490C1560,490,1500,490,1440,490C1380,490,1320,490,1260,490C1200,490,1140,490,1080,490C1020,490,960,490,900,490C840,490,780,490,720,490C660,490,600,490,540,490C480,490,420,490,360,490C300,490,240,490,180,490C120,490,60,490,30,490L0,490Z"/><defs><linearGradient id="sw-gradient-1" x1="0" x2="0" y1="1" y2="0"><stop stop-color="rgba(167, 115, 112, 1)" offset="0%"/><stop stop-color="rgba(238, 173, 170, 1)" offset="100%"/></linearGradient></defs><path style="transform:translate(0, 50px); opacity:0.9" fill="url(#sw-gradient-1)" d="M0,343L30,351.2C60,359,120,376,180,326.7C240,278,300,163,360,147C420,131,480,212,540,261.3C600,310,660,327,720,310.3C780,294,840,245,900,187.8C960,131,1020,65,1080,49C1140,33,1200,65,1260,114.3C1320,163,1380,229,1440,277.7C1500,327,1560,359,1620,351.2C1680,343,1740,294,1800,253.2C1860,212,1920,180,1980,163.3C2040,147,2100,147,2160,155.2C2220,163,2280,180,2340,220.5C2400,261,2460,327,2520,326.7C2580,327,2640,261,2700,245C2760,229,2820,261,2880,285.8C2940,310,3000,327,3060,334.8C3120,343,3180,343,3240,285.8C3300,229,3360,114,3420,81.7C3480,49,3540,98,3600,155.2C3660,212,3720,278,3780,318.5C3840,359,3900,376,3960,318.5C4020,261,4080,131,4140,106.2C4200,82,4260,163,4290,204.2L4320,245L4320,490L4290,490C4260,490,4200,490,4140,490C4080,490,4020,490,3960,490C3900,490,3840,490,3780,490C3720,490,3660,490,3600,490C3540,490,3480,490,3420,490C3360,490,3300,490,3240,490C3180,490,3120,490,3060,490C3000,490,2940,490,2880,490C2820,490,2760,490,2700,490C2640,490,2580,490,2520,490C2460,490,2400,490,2340,490C2280,490,2220,490,2160,490C2100,490,2040,490,1980,490C1920,490,1860,490,1800,490C1740,490,1680,490,1620,490C1560,490,1500,490,1440,490C1380,490,1320,490,1260,490C1200,490,1140,490,1080,490C1020,490,960,490,900,490C840,490,780,490,720,490C660,490,600,490,540,490C480,490,420,490,360,490C300,490,240,490,180,490C120,490,60,490,30,490L0,490Z"/><defs><linearGradient id="sw-gradient-2" x1="0" x2="0" y1="1" y2="0"><stop stop-color="rgba(167, 115, 112, 1)" offset="0%"/><stop stop-color="rgba(238, 173, 170, 1)" offset="100%"/></linearGradient></defs><path style="transform:translate(0, 100px); opacity:0.8" fill="url(#sw-gradient-2)" d="M0,392L30,359.3C60,327,120,261,180,228.7C240,196,300,196,360,236.8C420,278,480,359,540,375.7C600,392,660,343,720,277.7C780,212,840,131,900,130.7C960,131,1020,212,1080,269.5C1140,327,1200,359,1260,343C1320,327,1380,261,1440,228.7C1500,196,1560,196,1620,179.7C1680,163,1740,131,1800,138.8C1860,147,1920,196,1980,228.7C2040,261,2100,278,2160,269.5C2220,261,2280,229,2340,220.5C2400,212,2460,229,2520,196C2580,163,2640,82,2700,65.3C2760,49,2820,98,2880,114.3C2940,131,3000,114,3060,138.8C3120,163,3180,229,3240,269.5C3300,310,3360,327,3420,326.7C3480,327,3540,310,3600,318.5C3660,327,3720,359,3780,359.3C3840,359,3900,327,3960,318.5C4020,310,4080,327,4140,318.5C4200,310,4260,278,4290,261.3L4320,245L4320,490L4290,490C4260,490,4200,490,4140,490C4080,490,4020,490,3960,490C3900,490,3840,490,3780,490C3720,490,3660,490,3600,490C3540,490,3480,490,3420,490C3360,490,3300,490,3240,490C3180,490,3120,490,3060,490C3000,490,2940,490,2880,490C2820,490,2760,490,2700,490C2640,490,2580,490,2520,490C2460,490,2400,490,2340,490C2280,490,2220,490,2160,490C2100,490,2040,490,1980,490C1920,490,1860,490,1800,490C1740,490,1680,490,1620,490C1560,490,1500,490,1440,490C1380,490,1320,490,1260,490C1200,490,1140,490,1080,490C1020,490,960,490,900,490C840,490,780,490,720,490C660,490,600,490,540,490C480,490,420,490,360,490C300,490,240,490,180,490C120,490,60,490,30,490L0,490Z"/><defs><linearGradient id="sw-gradient-3" x1="0" x2="0" y1="1" y2="0"><stop stop-color="rgba(167, 115, 112, 1)" offset="0%"/><stop stop-color="rgba(238, 173, 170, 1)" offset="100%"/></linearGradient></defs><path style="transform:translate(0, 150px); opacity:0.7" fill="url(#sw-gradient-3)" d="M0,196L30,163.3C60,131,120,65,180,98C240,131,300,261,360,285.8C420,310,480,229,540,236.8C600,245,660,343,720,359.3C780,376,840,310,900,245C960,180,1020,114,1080,98C1140,82,1200,114,1260,122.5C1320,131,1380,114,1440,122.5C1500,131,1560,163,1620,163.3C1680,163,1740,131,1800,147C1860,163,1920,229,1980,212.3C2040,196,2100,98,2160,57.2C2220,16,2280,33,2340,73.5C2400,114,2460,180,2520,196C2580,212,2640,180,2700,212.3C2760,245,2820,343,2880,326.7C2940,310,3000,180,3060,122.5C3120,65,3180,82,3240,98C3300,114,3360,131,3420,138.8C3480,147,3540,147,3600,187.8C3660,229,3720,310,3780,343C3840,376,3900,359,3960,334.8C4020,310,4080,278,4140,261.3C4200,245,4260,245,4290,245L4320,245L4320,490L4290,490C4260,490,4200,490,4140,490C4080,490,4020,490,3960,490C3900,490,3840,490,3780,490C3720,490,3660,490,3600,490C3540,490,3480,490,3420,490C3360,490,3300,490,3240,490C3180,490,3120,490,3060,490C3000,490,2940,490,2880,490C2820,490,2760,490,2700,490C2640,490,2580,490,2520,490C2460,490,2400,490,2340,490C2280,490,2220,490,2160,490C2100,490,2040,490,1980,490C1920,490,1860,490,1800,490C1740,490,1680,490,1620,490C1560,490,1500,490,1440,490C1380,490,1320,490,1260,490C1200,490,1140,490,1080,490C1020,490,960,490,900,490C840,490,780,490,720,490C660,490,600,490,540,490C480,490,420,490,360,490C300,490,240,490,180,490C120,490,60,490,30,490L0,490Z"/></svg>