<?xml version="1.0" standalone="no"?>
<svg xmlns:xlink="http://www.w3.org/1999/xlink" id="wave" style="transform:rotate(0deg); transition: 0.3s" viewBox="0 0 1440 490" version="1.1" xmlns="http://www.w3.org/2000/svg"><defs><linearGradient id="sw-gradient-0" x1="0" x2="0" y1="1" y2="0"><stop stop-color="rgba(172, 39, 79, 1)" offset="0%"/><stop stop-color="rgba(255, 217, 218, 1)" offset="100%"/></linearGradient></defs><path style="transform:translate(0, 0px); opacity:1" fill="url(#sw-gradient-0)" d="M0,196L40,179.7C80,163,160,131,240,106.2C320,82,400,65,480,49C560,33,640,16,720,65.3C800,114,880,229,960,228.7C1040,229,1120,114,1200,130.7C1280,147,1360,294,1440,334.8C1520,376,1600,310,1680,277.7C1760,245,1840,245,1920,220.5C2000,196,2080,147,2160,147C2240,147,2320,196,2400,236.8C2480,278,2560,310,2640,334.8C2720,359,2800,376,2880,359.3C2960,343,3040,294,3120,294C3200,294,3280,343,3360,359.3C3440,376,3520,359,3600,334.8C3680,310,3760,278,3840,253.2C3920,229,4000,212,4080,187.8C4160,163,4240,131,4320,155.2C4400,180,4480,261,4560,294C4640,327,4720,310,4800,277.7C4880,245,4960,196,5040,187.8C5120,180,5200,212,5280,236.8C5360,261,5440,278,5520,269.5C5600,261,5680,229,5720,212.3L5760,196L5760,490L5720,490C5680,490,5600,490,5520,490C5440,490,5360,490,5280,490C5200,490,5120,490,5040,490C4960,490,4880,490,4800,490C4720,490,4640,490,4560,490C4480,490,4400,490,4320,490C4240,490,4160,490,4080,490C4000,490,3920,490,3840,490C3760,490,3680,490,3600,490C3520,490,3440,490,3360,490C3280,490,3200,490,3120,490C3040,490,2960,490,2880,490C2800,490,2720,490,2640,490C2560,490,2480,490,2400,490C2320,490,2240,490,2160,490C2080,490,2000,490,1920,490C1840,490,1760,490,1680,490C1600,490,1520,490,1440,490C1360,490,1280,490,1200,490C1120,490,1040,490,960,490C880,490,800,490,720,490C640,490,560,490,480,490C400,490,320,490,240,490C160,490,80,490,40,490L0,490Z"/><defs><linearGradient id="sw-gradient-1" x1="0" x2="0" y1="1" y2="0"><stop stop-color="rgba(172, 39, 79, 1)" offset="0%"/><stop stop-color="rgba(255, 217, 218, 1)" offset="100%"/></linearGradient></defs><path style="transform:translate(0, 50px); opacity:0.9" fill="url(#sw-gradient-1)" d="M0,147L40,196C80,245,160,343,240,318.5C320,294,400,147,480,81.7C560,16,640,33,720,73.5C800,114,880,180,960,187.8C1040,196,1120,147,1200,138.8C1280,131,1360,163,1440,220.5C1520,278,1600,359,1680,351.2C1760,343,1840,245,1920,196C2000,147,2080,147,2160,163.3C2240,180,2320,212,2400,261.3C2480,310,2560,376,2640,334.8C2720,294,2800,147,2880,73.5C2960,0,3040,0,3120,40.8C3200,82,3280,163,3360,171.5C3440,180,3520,114,3600,73.5C3680,33,3760,16,3840,73.5C3920,131,4000,261,4080,310.3C4160,359,4240,327,4320,269.5C4400,212,4480,131,4560,114.3C4640,98,4720,147,4800,171.5C4880,196,4960,196,5040,204.2C5120,212,5200,229,5280,253.2C5360,278,5440,310,5520,277.7C5600,245,5680,147,5720,98L5760,49L5760,490L5720,490C5680,490,5600,490,5520,490C5440,490,5360,490,5280,490C5200,490,5120,490,5040,490C4960,490,4880,490,4800,490C4720,490,4640,490,4560,490C4480,490,4400,490,4320,490C4240,490,4160,490,4080,490C4000,490,3920,490,3840,490C3760,490,3680,490,3600,490C3520,490,3440,490,3360,490C3280,490,3200,490,3120,490C3040,490,2960,490,2880,490C2800,490,2720,490,2640,490C2560,490,2480,490,2400,490C2320,490,2240,490,2160,490C2080,490,2000,490,1920,490C1840,490,1760,490,1680,490C1600,490,1520,490,1440,490C1360,490,1280,490,1200,490C1120,490,1040,490,960,490C880,490,800,490,720,490C640,490,560,490,480,490C400,490,320,490,240,490C160,490,80,490,40,490L0,490Z"/><defs><linearGradient id="sw-gradient-2" x1="0" x2="0" y1="1" y2="0"><stop stop-color="rgba(172, 39, 79, 1)" offset="0%"/><stop stop-color="rgba(255, 217, 218, 1)" offset="100%"/></linearGradient></defs><path style="transform:translate(0, 100px); opacity:0.8" fill="url(#sw-gradient-2)" d="M0,392L40,359.3C80,327,160,261,240,220.5C320,180,400,163,480,155.2C560,147,640,147,720,171.5C800,196,880,245,960,228.7C1040,212,1120,131,1200,147C1280,163,1360,278,1440,277.7C1520,278,1600,163,1680,130.7C1760,98,1840,147,1920,179.7C2000,212,2080,229,2160,236.8C2240,245,2320,245,2400,228.7C2480,212,2560,180,2640,212.3C2720,245,2800,343,2880,367.5C2960,392,3040,343,3120,318.5C3200,294,3280,294,3360,285.8C3440,278,3520,261,3600,285.8C3680,310,3760,376,3840,408.3C3920,441,4000,441,4080,424.7C4160,408,4240,376,4320,302.2C4400,229,4480,114,4560,65.3C4640,16,4720,33,4800,49C4880,65,4960,82,5040,122.5C5120,163,5200,229,5280,228.7C5360,229,5440,163,5520,179.7C5600,196,5680,294,5720,343L5760,392L5760,490L5720,490C5680,490,5600,490,5520,490C5440,490,5360,490,5280,490C5200,490,5120,490,5040,490C4960,490,4880,490,4800,490C4720,490,4640,490,4560,490C4480,490,4400,490,4320,490C4240,490,4160,490,4080,490C4000,490,3920,490,3840,490C3760,490,3680,490,3600,490C3520,490,3440,490,3360,490C3280,490,3200,490,3120,490C3040,490,2960,490,2880,490C2800,490,2720,490,2640,490C2560,490,2480,490,2400,490C2320,490,2240,490,2160,490C2080,490,2000,490,1920,490C1840,490,1760,490,1680,490C1600,490,1520,490,1440,490C1360,490,1280,490,1200,490C1120,490,1040,490,960,490C880,490,800,490,720,490C640,490,560,490,480,490C400,490,320,490,240,490C160,490,80,490,40,490L0,490Z"/><defs><linearGradient id="sw-gradient-3" x1="0" x2="0" y1="1" y2="0"><stop stop-color="rgba(172, 39, 79, 1)" offset="0%"/><stop stop-color="rgba(255, 217, 218, 1)" offset="100%"/></linearGradient></defs><path style="transform:translate(0, 150px); opacity:0.7" fill="url(#sw-gradient-3)" d="M0,0L40,16.3C80,33,160,65,240,65.3C320,65,400,33,480,49C560,65,640,131,720,138.8C800,147,880,98,960,106.2C1040,114,1120,180,1200,187.8C1280,196,1360,147,1440,138.8C1520,131,1600,163,1680,204.2C1760,245,1840,294,1920,302.2C2000,310,2080,278,2160,253.2C2240,229,2320,212,2400,196C2480,180,2560,163,2640,147C2720,131,2800,114,2880,114.3C2960,114,3040,131,3120,171.5C3200,212,3280,278,3360,277.7C3440,278,3520,212,3600,163.3C3680,114,3760,82,3840,89.8C3920,98,4000,147,4080,187.8C4160,229,4240,261,4320,285.8C4400,310,4480,327,4560,285.8C4640,245,4720,147,4800,106.2C4880,65,4960,82,5040,138.8C5120,196,5200,294,5280,318.5C5360,343,5440,294,5520,285.8C5600,278,5680,310,5720,326.7L5760,343L5760,490L5720,490C5680,490,5600,490,5520,490C5440,490,5360,490,5280,490C5200,490,5120,490,5040,490C4960,490,4880,490,4800,490C4720,490,4640,490,4560,490C4480,490,4400,490,4320,490C4240,490,4160,490,4080,490C4000,490,3920,490,3840,490C3760,490,3680,490,3600,490C3520,490,3440,490,3360,490C3280,490,3200,490,3120,490C3040,490,2960,490,2880,490C2800,490,2720,490,2640,490C2560,490,2480,490,2400,490C2320,490,2240,490,2160,490C2080,490,2000,490,1920,490C1840,490,1760,490,1680,490C1600,490,1520,490,1440,490C1360,490,1280,490,1200,490C1120,490,1040,490,960,490C880,490,800,490,720,490C640,490,560,490,480,490C400,490,320,490,240,490C160,490,80,490,40,490L0,490Z"/></svg>