<?xml version="1.0" standalone="no"?>
<svg xmlns:xlink="http://www.w3.org/1999/xlink" id="wave" style="transform:rotate(0deg); transition: 0.3s" viewBox="0 0 1440 490" version="1.1" xmlns="http://www.w3.org/2000/svg"><defs><linearGradient id="sw-gradient-0" x1="0" x2="0" y1="1" y2="0"><stop stop-color="rgba(56, 46, 49, 1)" offset="0%"/><stop stop-color="rgba(172, 39, 79, 1)" offset="100%"/></linearGradient></defs><path style="transform:translate(0, 0px); opacity:1" fill="url(#sw-gradient-0)" d="M0,0L60,40.8C120,82,240,163,360,220.5C480,278,600,310,720,269.5C840,229,960,114,1080,73.5C1200,33,1320,65,1440,138.8C1560,212,1680,327,1800,343C1920,359,2040,278,2160,253.2C2280,229,2400,261,2520,236.8C2640,212,2760,131,2880,89.8C3000,49,3120,49,3240,114.3C3360,180,3480,310,3600,310.3C3720,310,3840,180,3960,155.2C4080,131,4200,212,4320,261.3C4440,310,4560,327,4680,326.7C4800,327,4920,310,5040,261.3C5160,212,5280,131,5400,81.7C5520,33,5640,16,5760,8.2C5880,0,6000,0,6120,49C6240,98,6360,196,6480,228.7C6600,261,6720,229,6840,236.8C6960,245,7080,294,7200,334.8C7320,376,7440,408,7560,367.5C7680,327,7800,212,7920,138.8C8040,65,8160,33,8280,49C8400,65,8520,131,8580,163.3L8640,196L8640,490L8580,490C8520,490,8400,490,8280,490C8160,490,8040,490,7920,490C7800,490,7680,490,7560,490C7440,490,7320,490,7200,490C7080,490,6960,490,6840,490C6720,490,6600,490,6480,490C6360,490,6240,490,6120,490C6000,490,5880,490,5760,490C5640,490,5520,490,5400,490C5280,490,5160,490,5040,490C4920,490,4800,490,4680,490C4560,490,4440,490,4320,490C4200,490,4080,490,3960,490C3840,490,3720,490,3600,490C3480,490,3360,490,3240,490C3120,490,3000,490,2880,490C2760,490,2640,490,2520,490C2400,490,2280,490,2160,490C2040,490,1920,490,1800,490C1680,490,1560,490,1440,490C1320,490,1200,490,1080,490C960,490,840,490,720,490C600,490,480,490,360,490C240,490,120,490,60,490L0,490Z"/><defs><linearGradient id="sw-gradient-1" x1="0" x2="0" y1="1" y2="0"><stop stop-color="rgba(172, 39, 79, 1)" offset="0%"/><stop stop-color="rgba(235, 99, 139, 1)" offset="100%"/></linearGradient></defs><path style="transform:translate(0, 50px); opacity:0.9" fill="url(#sw-gradient-1)" d="M0,49L60,114.3C120,180,240,310,360,375.7C480,441,600,441,720,375.7C840,310,960,180,1080,147C1200,114,1320,180,1440,228.7C1560,278,1680,310,1800,294C1920,278,2040,212,2160,179.7C2280,147,2400,147,2520,171.5C2640,196,2760,245,2880,228.7C3000,212,3120,131,3240,106.2C3360,82,3480,114,3600,106.2C3720,98,3840,49,3960,81.7C4080,114,4200,229,4320,269.5C4440,310,4560,278,4680,228.7C4800,180,4920,114,5040,114.3C5160,114,5280,180,5400,228.7C5520,278,5640,310,5760,269.5C5880,229,6000,114,6120,89.8C6240,65,6360,131,6480,147C6600,163,6720,131,6840,155.2C6960,180,7080,261,7200,253.2C7320,245,7440,147,7560,138.8C7680,131,7800,212,7920,236.8C8040,261,8160,229,8280,212.3C8400,196,8520,196,8580,196L8640,196L8640,490L8580,490C8520,490,8400,490,8280,490C8160,490,8040,490,7920,490C7800,490,7680,490,7560,490C7440,490,7320,490,7200,490C7080,490,6960,490,6840,490C6720,490,6600,490,6480,490C6360,490,6240,490,6120,490C6000,490,5880,490,5760,490C5640,490,5520,490,5400,490C5280,490,5160,490,5040,490C4920,490,4800,490,4680,490C4560,490,4440,490,4320,490C4200,490,4080,490,3960,490C3840,490,3720,490,3600,490C3480,490,3360,490,3240,490C3120,490,3000,490,2880,490C2760,490,2640,490,2520,490C2400,490,2280,490,2160,490C2040,490,1920,490,1800,490C1680,490,1560,490,1440,490C1320,490,1200,490,1080,490C960,490,840,490,720,490C600,490,480,490,360,490C240,490,120,490,60,490L0,490Z"/><defs><linearGradient id="sw-gradient-2" x1="0" x2="0" y1="1" y2="0"><stop stop-color="rgba(235, 99, 139, 1)" offset="0%"/><stop stop-color="rgba(255, 217, 218, 1)" offset="100%"/></linearGradient></defs><path style="transform:translate(0, 100px); opacity:0.8" fill="url(#sw-gradient-2)" d="M0,441L60,416.5C120,392,240,343,360,269.5C480,196,600,98,720,49C840,0,960,0,1080,24.5C1200,49,1320,98,1440,106.2C1560,114,1680,82,1800,73.5C1920,65,2040,82,2160,98C2280,114,2400,131,2520,147C2640,163,2760,180,2880,204.2C3000,229,3120,261,3240,245C3360,229,3480,163,3600,187.8C3720,212,3840,327,3960,334.8C4080,343,4200,245,4320,171.5C4440,98,4560,49,4680,49C4800,49,4920,98,5040,114.3C5160,131,5280,114,5400,147C5520,180,5640,261,5760,253.2C5880,245,6000,147,6120,147C6240,147,6360,245,6480,253.2C6600,261,6720,180,6840,163.3C6960,147,7080,196,7200,212.3C7320,229,7440,212,7560,196C7680,180,7800,163,7920,155.2C8040,147,8160,147,8280,130.7C8400,114,8520,82,8580,65.3L8640,49L8640,490L8580,490C8520,490,8400,490,8280,490C8160,490,8040,490,7920,490C7800,490,7680,490,7560,490C7440,490,7320,490,7200,490C7080,490,6960,490,6840,490C6720,490,6600,490,6480,490C6360,490,6240,490,6120,490C6000,490,5880,490,5760,490C5640,490,5520,490,5400,490C5280,490,5160,490,5040,490C4920,490,4800,490,4680,490C4560,490,4440,490,4320,490C4200,490,4080,490,3960,490C3840,490,3720,490,3600,490C3480,490,3360,490,3240,490C3120,490,3000,490,2880,490C2760,490,2640,490,2520,490C2400,490,2280,490,2160,490C2040,490,1920,490,1800,490C1680,490,1560,490,1440,490C1320,490,1200,490,1080,490C960,490,840,490,720,490C600,490,480,490,360,490C240,490,120,490,60,490L0,490Z"/><defs><linearGradient id="sw-gradient-3" x1="0" x2="0" y1="1" y2="0"><stop stop-color="rgba(255, 217, 218, 1)" offset="0%"/><stop stop-color="rgba(250.767, 228.734, 229.314, 1)" offset="100%"/></linearGradient></defs><path style="transform:translate(0, 150px); opacity:0.7" fill="url(#sw-gradient-3)" d="M0,147L60,171.5C120,196,240,245,360,245C480,245,600,196,720,147C840,98,960,49,1080,40.8C1200,33,1320,65,1440,122.5C1560,180,1680,261,1800,245C1920,229,2040,114,2160,122.5C2280,131,2400,261,2520,269.5C2640,278,2760,163,2880,114.3C3000,65,3120,82,3240,73.5C3360,65,3480,33,3600,49C3720,65,3840,131,3960,196C4080,261,4200,327,4320,302.2C4440,278,4560,163,4680,163.3C4800,163,4920,278,5040,318.5C5160,359,5280,327,5400,318.5C5520,310,5640,327,5760,310.3C5880,294,6000,245,6120,261.3C6240,278,6360,359,6480,367.5C6600,376,6720,310,6840,269.5C6960,229,7080,212,7200,204.2C7320,196,7440,196,7560,163.3C7680,131,7800,65,7920,73.5C8040,82,8160,163,8280,212.3C8400,261,8520,278,8580,285.8L8640,294L8640,490L8580,490C8520,490,8400,490,8280,490C8160,490,8040,490,7920,490C7800,490,7680,490,7560,490C7440,490,7320,490,7200,490C7080,490,6960,490,6840,490C6720,490,6600,490,6480,490C6360,490,6240,490,6120,490C6000,490,5880,490,5760,490C5640,490,5520,490,5400,490C5280,490,5160,490,5040,490C4920,490,4800,490,4680,490C4560,490,4440,490,4320,490C4200,490,4080,490,3960,490C3840,490,3720,490,3600,490C3480,490,3360,490,3240,490C3120,490,3000,490,2880,490C2760,490,2640,490,2520,490C2400,490,2280,490,2160,490C2040,490,1920,490,1800,490C1680,490,1560,490,1440,490C1320,490,1200,490,1080,490C960,490,840,490,720,490C600,490,480,490,360,490C240,490,120,490,60,490L0,490Z"/></svg>